REM MD5 c770a12cd3ac38e3bde7df987fda2251
FILE "Mega Man 8 (Europe).bin" BINARY
  TRACK 01 MODE2/2352
    INDEX 01 00:00:00
  TRACK 02 AUDIO
    INDEX 00 31:37:59
    INDEX 01 31:39:59
  TRACK 03 AUDIO
    INDEX 00 36:04:30
    INDEX 01 36:06:30
REM LEADOUT 39:36:30
